<?xml version="1.0" standalone="no"?>
<!DOCTYPE svg PUBLIC "-//W3C//DTD SVG 20010904//EN"
 "http://www.w3.org/TR/2001/REC-SVG-20010904/DTD/svg10.dtd">
<svg version="1.0" xmlns="http://www.w3.org/2000/svg"
 width="852.000000pt" height="852.000000pt" viewBox="0 0 852.000000 852.000000"
 preserveAspectRatio="xMidYMid meet">
<metadata>
Created by potrace 1.11, written by Peter Selinger 2001-2013
</metadata>
<g transform="translate(0.000000,852.000000) scale(0.100000,-0.100000)"
fill="#000000" stroke="none">
<path d="M4079 7216 c-2 -2 -47 -7 -99 -10 -52 -3 -104 -7 -115 -10 -11 -2
-47 -7 -80 -11 -33 -3 -78 -10 -100 -15 -22 -5 -56 -12 -75 -15 -19 -3 -42 -8
-50 -10 -8 -2 -27 -6 -41 -9 -95 -16 -427 -119 -504 -156 -11 -5 -49 -21 -85
-36 -489 -200 -995 -612 -1303 -1061 -32 -46 -57 -85 -57 -89 0 -3 -11 -20
-24 -37 -72 -97 -205 -380 -273 -581 -42 -127 -96 -332 -107 -411 -9 -61 -16
-107 -21 -139 -20 -116 -27 -468 -13 -637 7 -82 22 -196 33 -249 2 -14 10 -50
16 -80 79 -398 264 -806 519 -1145 117 -156 252 -300 436 -466 119 -107 313
-241 534 -369 8 -5 60 -31 115 -58 298 -149 612 -247 985 -307 145 -23 288
-32 505 -32 223 0 375 10 510 33 17 3 41 7 55 9 25 4 156 30 195 39 11 2 43 9
70 15 90 20 307 92 432 142 836 339 1462 991 1741 1814 49 144 100 361 117
501 4 27 8 56 10 64 22 87 22 603 0 690 -2 8 -6 42 -10 75 -11 105 -65 335
-115 485 -143 436 -376 814 -704 1142 -274 274 -579 481 -961 653 -136 62
-427 158 -545 181 -14 3 -41 9 -60 14 -19 5 -48 12 -65 14 -99 18 -208 36
-260 41 -33 4 -76 9 -95 11 -46 6 -506 14 -511 10z m321 -1150 c109 -7 129
-10 262 -37 85 -17 184 -48 298 -91 65 -24 235 -111 305 -156 240 -154 457
-371 602 -602 142 -228 236 -513 259 -785 5 -52 3 -282 -2 -320 -2 -16 -6 -48
-8 -70 -6 -57 -33 -178 -57 -260 -21 -70 -96 -261 -110 -280 -4 -5 -23 -40
-43 -77 -159 -301 -467 -594 -795 -758 -171 -86 -389 -158 -561 -184 -145 -23
-427 -24 -535 -2 -11 2 -40 7 -65 12 -25 4 -47 8 -50 9 -20 4 -86 19 -90 20
-3 1 -25 7 -50 14 -25 6 -54 16 -65 20 -11 5 -58 23 -105 41 -146 56 -371 184
-478 274 -450 374 -687 844 -697 1381 -3 171 8 275 47 440 133 571 559 1056
1131 1285 100 41 284 93 367 105 121 18 160 22 234 24 44 1 82 4 84 6 2 2 9 2
15 0 7 -2 55 -6 107 -9z"/>
<path d="M4207 5054 c-1 -1 -22 -5 -47 -8 -69 -9 -82 -12 -159 -39 -267 -93
-478 -349 -516 -627 -28 -203 15 -399 124 -559 157 -230 407 -358 681 -347
153 6 210 20 335 83 180 91 313 239 383 425 37 100 47 159 47 293 -1 99 -11
172 -35 230 -4 11 -15 41 -25 67 -22 62 -100 181 -156 237 -159 160 -345 240
-571 245 -33 0 -60 0 -61 0z"/>
</g>
</svg>
